<svg width="32" height="32" viewBox="0 0 32 32" fill="none" xmlns="http://www.w3.org/2000/svg">
<g clip-path="url(#clip0_5575_49)">
<path d="M16 32C24.8366 32 32 24.8366 32 16C32 7.16344 24.8366 0 16 0C7.16344 0 0 7.16344 0 16C0 24.8366 7.16344 32 16 32Z" fill="#135695"/>
<path d="M12.2953 23.28L7.65527 16.68H6.11527V23H4.15527V9.76001H8.47527C9.34194 9.76001 10.1219 9.89334 10.8153 10.16C11.5086 10.4133 12.0553 10.7933 12.4553 11.3C12.8686 11.7933 13.0753 12.4067 13.0753 13.14C13.0753 14.0867 12.7153 14.84 11.9953 15.4C11.2753 15.9467 10.3619 16.32 9.25527 16.52L14.6153 23L12.2953 23.28ZM6.11527 16.08H7.39527C8.3686 16.08 9.1086 15.94 9.61527 15.66C10.1353 15.38 10.4953 15.0267 10.6953 14.6C10.8953 14.16 10.9953 13.7067 10.9953 13.24C10.9953 13.1733 10.9753 13.0267 10.9353 12.8C10.9086 12.56 10.8286 12.2933 10.6953 12C10.5619 11.6933 10.3419 11.4067 10.0353 11.14C9.74194 10.86 9.3286 10.6467 8.79527 10.5C8.4086 10.5 7.9486 10.5333 7.41527 10.6C6.89527 10.6667 6.46194 10.7467 6.11527 10.84V16.08ZM16.9092 23V9.76001H18.8492V15.68H24.9092V9.76001H26.8492V23H24.9092V16.44H18.8492V23H16.9092Z" fill="white"/>
</g>
<defs>
<clipPath id="clip0_5575_49">
<rect width="32" height="32" fill="white"/>
</clipPath>
</defs>
</svg>
